<svg width="193" height="67" viewBox="0 0 193 67" fill="none" xmlns="http://www.w3.org/2000/svg">
<mask id="mask0_2338_51" style="mask-type:alpha" maskUnits="userSpaceOnUse" x="0" y="0" width="193" height="67">
<rect width="193" height="67" fill="#C4C4C4"/>
</mask>
<g mask="url(#mask0_2338_51)">
<path fill-rule="evenodd" clip-rule="evenodd" d="M141.364 83.351L143.496 86.285H142.224L140.258 83.466H140.071V86.286H139.032V79.4H140.249C141.159 79.4 141.816 79.571 142.219 79.913C142.666 80.293 142.889 80.796 142.889 81.419C142.889 81.908 142.749 82.327 142.47 82.677C142.191 83.027 141.822 83.252 141.364 83.351ZM140.071 82.561V80.377H140.441C141.399 80.377 141.877 80.729 141.877 81.433C141.877 82.186 141.385 82.562 140.401 82.562H140.071V82.561ZM133.128 80.376H130.368V82.03H133.048V83.007H130.368V85.309H133.128V86.286H129.328V79.399H133.128V80.376ZM119.776 82.146L122.457 79.399H123.844L120.731 82.517L123.861 86.286H122.469L119.99 83.221L119.776 83.435V86.285H118.737V79.399H119.777V82.147L119.776 82.146ZM111.478 84.613H108.53L107.763 86.285H106.643L110.051 78.967L113.338 86.285H112.2L111.478 84.613ZM111.054 83.636L110.034 81.295L108.962 83.635H111.054V83.636ZM93.872 86.286L95.321 78.883L97.685 84.234L100.133 78.883L101.435 86.285H100.37L99.705 82.13L97.667 86.602L95.687 82.125L94.947 86.285H93.873L93.872 86.286ZM88.209 80.376H85.449V82.03H88.129V83.007H85.449V85.309H88.209V86.286H84.409V79.399H88.209V80.376ZM71.365 82.811C71.365 81.841 71.72 81.011 72.431 80.314C72.7638 79.9766 73.1615 79.7102 73.6001 79.5308C74.0387 79.3513 74.5092 79.2626 74.983 79.27C75.963 79.27 76.805 79.62 77.506 80.323C78.211 81.024 78.563 81.868 78.563 82.851C78.563 83.841 78.21 84.681 77.501 85.371C76.791 86.064 75.934 86.411 74.928 86.411C74.04 86.411 73.241 86.102 72.534 85.486C71.755 84.806 71.365 83.914 71.365 82.811ZM72.414 82.825C72.414 83.585 72.669 84.212 73.18 84.702C73.688 85.193 74.276 85.438 74.942 85.438C75.664 85.438 76.274 85.188 76.77 84.688C77.266 84.183 77.515 83.568 77.515 82.843C77.515 82.109 77.269 81.493 76.779 80.997C76.292 80.496 75.689 80.247 74.969 80.247C74.253 80.247 73.647 80.496 73.154 80.997C72.66 81.49 72.414 82.1 72.414 82.825ZM61.51 82.093H64.481V79.401H65.519V86.286H64.48V83.071H61.51V86.286H60.47V79.401H61.51V82.094V82.093ZM176.014 44.058L184.76 64.051H182.283L179.781 58.158H172.274L169.772 64.051H167.296L176.014 44.058ZM176.014 49.117L172.946 56.193H179.082L176.014 49.117ZM54.5 80.425L53.658 80.925C53.5 80.652 53.35 80.472 53.208 80.391C53.058 80.295 52.866 80.248 52.631 80.246C52.343 80.246 52.104 80.328 51.913 80.492C51.8223 80.5647 51.7495 80.6573 51.7001 80.7625C51.6507 80.8677 51.6261 80.9828 51.628 81.099C51.628 81.434 51.878 81.706 52.378 81.911L53.065 82.191C53.623 82.418 54.031 82.694 54.291 83.021C54.549 83.345 54.679 83.744 54.679 84.216C54.679 84.85 54.467 85.373 54.045 85.786C53.62 86.202 53.092 86.409 52.462 86.409C51.865 86.409 51.372 86.233 50.982 85.879C50.598 85.526 50.358 85.027 50.264 84.385L51.315 84.153C51.364 84.558 51.447 84.838 51.565 84.993C51.78 85.29 52.092 85.438 52.502 85.438C52.827 85.438 53.095 85.329 53.309 85.112C53.523 84.895 53.631 84.621 53.631 84.287C53.631 84.153 53.611 84.032 53.573 83.921C53.5367 83.8081 53.4775 83.7039 53.399 83.615C53.3126 83.5111 53.2099 83.422 53.095 83.351C52.9539 83.2585 52.8046 83.1792 52.649 83.114L51.985 82.838C51.042 82.44 50.572 81.858 50.572 81.09C50.572 80.573 50.769 80.14 51.165 79.793C51.56 79.441 52.051 79.266 52.64 79.266C53.435 79.266 54.054 79.653 54.5 80.426V80.425ZM23.908 47.989C22.475 46.959 20.903 46.479 19.091 46.479C17.073 46.479 15.028 47.342 13.601 48.821C12.121 50.355 11.394 52.238 11.394 54.498C11.394 56.275 11.825 57.782 12.713 59.046C14.247 61.226 16.588 62.464 19.199 62.464C20.93 62.464 22.509 61.956 23.909 60.918V63.418C22.3869 64.1734 20.7102 64.565 19.011 64.562C16.9808 64.5646 14.9985 63.9451 13.331 62.787C10.535 60.851 9 57.943 9 54.526C9 51.538 9.995 49.144 12.013 47.179C13.978 45.295 16.346 44.354 19.172 44.354C20.857 44.354 22.411 44.734 23.908 45.483V47.989ZM43.814 44.059L52.559 64.051H50.083L47.581 58.158H40.074L37.57 64.051H35.095L43.814 44.058V44.059ZM43.814 49.117L40.746 56.193H46.881L43.814 49.117ZM66.071 46.749V53.18H67.821C70.833 53.18 72.313 52.75 72.313 50.085C72.313 47.287 70.861 46.749 67.82 46.749H66.07H66.071ZM63.837 64.051V44.811H68.357C70.189 44.811 71.586 44.866 72.771 45.781C73.874 46.641 74.573 48.175 74.573 50.058C74.573 53.208 72.771 54.875 69.38 54.875H68.976L76.323 64.051H73.417L66.394 54.875H66.071V64.051H63.837ZM97.042 64.805L91.07 50.974L88.646 64.051H86.413L90.315 44.058L97.042 59.962L103.77 44.058L107.67 64.051H105.437L102.988 50.974L97.042 64.804V64.805ZM120.901 64.052V44.811H123.187V64.051H120.901V64.052ZM136.953 64.052V44.058L151.027 59.423V44.811H153.205V64.805L139.133 49.601V64.051H136.953V64.052ZM96.874 11.038C96.654 11.038 95.024 11.975 94.283 12.394C93.491 12.842 92.383 13.434 92.383 13.659C92.383 13.885 93.74 14.499 94.595 15.052C95.492 15.632 96.422 16.568 96.875 16.568C97.327 16.568 98.267 15.632 99.164 15.052C100.02 14.498 101.376 13.885 101.376 13.659C101.376 13.433 100.268 12.842 99.476 12.394C98.736 11.975 97.096 11.038 96.874 11.038ZM89.4 15.618C86.113 15.618 83.283 18.572 83.283 22.233C83.283 25.896 86.688 27.674 88.586 27.674C90.486 27.674 93.062 26.122 93.062 23.454C93.062 20.787 90.998 19.822 89.446 19.822C87.894 19.822 87.26 21.059 87.26 22.144C87.26 23.229 87.999 23.544 88.542 23.544C89.083 23.544 89.852 22.957 89.852 22.279C89.852 21.601 89.762 21.194 90.305 21.555C90.846 21.918 91.479 22.415 91.479 23.455C91.479 24.494 90.229 25.895 88.496 25.895C86.763 25.895 84.909 24.148 84.909 22.053C84.909 19.959 86.773 17.337 89.672 17.337C92.412 17.337 95.428 20.004 95.428 23.544C95.428 27.085 92.716 29.979 88.631 29.979C84.548 29.979 80.871 26.633 80.871 22.007C80.871 17.381 84.246 14.655 88.677 12.755C92.978 10.912 96.442 8.159 96.847 8C97.308 8.16 100.781 10.912 105.083 12.755C109.513 14.655 112.889 17.381 112.889 22.007C112.889 26.633 109.211 29.979 105.129 29.979C101.044 29.979 98.331 27.085 98.331 23.544C98.331 20.004 101.347 17.337 104.087 17.337C106.987 17.337 108.85 19.959 108.85 22.053C108.85 24.148 106.996 25.896 105.263 25.896C103.531 25.896 102.28 24.494 102.28 23.455C102.28 22.415 102.913 21.918 103.455 21.555C103.998 21.194 103.907 21.601 103.907 22.279C103.907 22.957 104.676 23.544 105.217 23.544C105.761 23.544 106.498 23.229 106.498 22.144C106.498 21.059 105.866 19.822 104.313 19.822C102.761 19.822 100.698 20.787 100.698 23.455C100.698 26.122 103.274 27.675 105.174 27.675C107.072 27.675 110.478 25.895 110.478 22.233C110.478 18.573 107.647 15.618 104.358 15.618C102.698 15.618 101.024 16.402 100.291 16.885C98.211 18.247 97.193 20.102 96.929 20.411C96.56 20.106 95.551 18.249 93.469 16.885C92.735 16.402 91.062 15.618 89.4 15.618ZM96.085 13.661C96.0851 13.577 96.1018 13.4938 96.1341 13.4162C96.1664 13.3386 96.2136 13.2681 96.2732 13.2087C96.3327 13.1494 96.4033 13.1024 96.481 13.0703C96.5587 13.0383 96.642 13.0219 96.726 13.022C96.81 13.0221 96.8932 13.0388 96.9708 13.0711C97.0484 13.1034 97.1189 13.1506 97.1783 13.2102C97.2376 13.2697 97.2846 13.3403 97.3167 13.418C97.3487 13.4957 97.3651 13.579 97.365 13.663C97.3647 13.8327 97.2971 13.9954 97.1768 14.1153C97.0566 14.2351 96.8937 14.3023 96.724 14.302C96.5543 14.3017 96.3916 14.2341 96.2717 14.1138C96.1519 13.9936 96.0847 13.8307 96.085 13.661ZM76.358 105.657L74.71 101.91H74.695L74.055 105.54H73.348L74.469 99.81L76.358 104.14L78.245 99.81L79.368 105.54H78.661L78.021 101.91H78.006L76.358 105.657ZM84.742 104.163H82.221L81.594 105.541H80.857L83.481 99.81L86.106 105.54H85.37L84.742 104.163ZM84.458 103.536L83.481 101.312L82.504 103.536H84.458ZM88.71 100.044V104.914H90.379V105.541H88.024V100.044H88.71ZM92.975 100.044V104.914H94.644V105.541H92.29V100.044H92.975ZM99.048 99.927C100.625 99.927 101.928 101.217 101.928 102.793C101.928 104.425 100.638 105.657 99.048 105.657C97.458 105.657 96.168 104.425 96.168 102.793C96.168 101.216 97.473 99.927 99.048 99.927ZM99.048 105.017C100.238 105.017 101.244 104.047 101.244 102.793C101.244 101.583 100.339 100.569 99.048 100.569C97.758 100.569 96.854 101.582 96.854 102.793C96.852 103.083 96.9072 103.371 97.0164 103.639C97.1256 103.908 97.2866 104.153 97.4904 104.359C97.6941 104.566 97.9365 104.73 98.2038 104.843C98.471 104.956 98.7579 105.015 99.048 105.017ZM105.735 103.149L107.47 105.541H106.639L105.02 103.215H104.735V105.541H104.051V100.044H104.882C105.371 100.044 105.896 100.051 106.334 100.298C106.792 100.568 107.054 101.086 107.054 101.611C107.054 102.398 106.53 103.055 105.734 103.149H105.735ZM104.735 100.655V102.647H104.955C105.655 102.647 106.413 102.515 106.413 101.64C106.413 100.78 105.597 100.655 104.918 100.655H104.735ZM113.471 100.298V101.094C113.067 100.746 112.552 100.554 112.019 100.554C110.787 100.554 109.846 101.582 109.846 102.799C109.846 104.004 110.78 105.031 112.006 105.031C112.544 105.031 113.063 104.827 113.471 104.461V105.272C113.03 105.521 112.533 105.653 112.027 105.657C110.459 105.657 109.162 104.412 109.162 102.822C109.162 101.195 110.467 99.927 112.086 99.927C112.566 99.927 113.056 100.044 113.471 100.298ZM119.049 104.163H116.527L115.9 105.541H115.163L117.788 99.81L120.413 105.54H119.677L119.049 104.163ZM118.765 103.536L117.788 101.312L116.811 103.536H118.765Z" fill="white"/>
</g>
</svg>
